<?xml version="1.0" encoding="UTF-8" standalone="no"?>
<!-- Created with Inkscape (http://www.inkscape.org/) -->

<svg
   xmlns:dc="http://purl.org/dc/elements/1.1/"
   xmlns:cc="http://creativecommons.org/ns#"
   xmlns:rdf="http://www.w3.org/1999/02/22-rdf-syntax-ns#"
   xmlns:svg="http://www.w3.org/2000/svg"
   xmlns="http://www.w3.org/2000/svg"
   xmlns:sodipodi="http://sodipodi.sourceforge.net/DTD/sodipodi-0.dtd"
   xmlns:inkscape="http://www.inkscape.org/namespaces/inkscape"
   version="1.1"
   id="svg3731"
   width="341.33334"
   height="341.33334"
   viewBox="0 0 341.33334 341.33334"
   sodipodi:docname="jda-transparent.svg"
   inkscape:version="0.92.3 (2405546, 2018-03-11)">
  <metadata
     id="metadata3737">
    <rdf:RDF>
      <cc:Work
         rdf:about="">
        <dc:format>image/svg+xml</dc:format>
        <dc:type
           rdf:resource="http://purl.org/dc/dcmitype/StillImage" />
        <dc:title></dc:title>
      </cc:Work>
    </rdf:RDF>
  </metadata>
  <defs
     id="defs3735" />
  <sodipodi:namedview
     pagecolor="#ffffff"
     bordercolor="#666666"
     borderopacity="1"
     objecttolerance="10"
     gridtolerance="10"
     guidetolerance="10"
     inkscape:pageopacity="0"
     inkscape:pageshadow="2"
     inkscape:window-width="3840"
     inkscape:window-height="2080"
     id="namedview3733"
     showgrid="false"
     inkscape:zoom="5.4404295"
     inkscape:cx="199.43278"
     inkscape:cy="170.66667"
     inkscape:window-x="2869"
     inkscape:window-y="-11"
     inkscape:window-maximized="1"
     inkscape:current-layer="svg3731" />
  <path
     style="fill:#ffffff;stroke-width:1.33333337"
     d="M 94.762687,255.26267 C 80.502376,252.17012 67.793608,245.26523 57.094673,234.797 l -9.510141,-9.30506 0.868308,-15.20304 c 1.86425,-32.6408 11.419675,-71.20038 24.890333,-100.44144 5.626775,-12.214169 9.806907,-15.881429 27.331887,-23.978466 14.08731,-6.50874 33.57418,-10.599109 37.86408,-7.947812 1.26144,0.779612 -1.92082,2.474188 -10.19235,5.42752 -13.10432,4.67886 -30.681895,13.605941 -37.013455,18.797938 -3.839215,3.14822 -3.638912,3.11995 4.983103,-0.70327 24.105402,-10.688959 46.596902,-15.263292 75.016902,-15.256982 26.66954,0.0059 47.37432,4.308058 69.86718,14.517332 9.17088,4.16257 9.75308,4.28292 6.13282,1.26773 C 242.01391,97.541103 222.79555,87.723608 212,83.921796 c -10.4316,-3.673644 -10.07201,-3.425177 -8.20786,-5.671338 2.89308,-3.485947 22.73302,0.511184 38.44073,7.74461 17.2451,7.941393 21.47754,11.667907 27.09063,23.852392 13.47067,29.24106 23.02608,67.80064 24.89033,100.44144 l 0.86831,15.20304 -9.51013,9.30506 c -10.89296,10.65807 -23.41971,17.37392 -38.27693,20.52108 -15.5645,3.29699 -16.42926,3.07926 -23.62841,-5.94925 -6.57293,-8.24317 -7.60975,-10.70216 -4.51248,-10.70216 3.8322,0 20.95808,-9.69357 27.4706,-15.54889 3.74685,-3.36874 6.60597,-6.33147 6.3536,-6.58383 -0.25237,-0.25237 -4.92575,1.86721 -10.38529,4.7102 -37.3524,19.45077 -79.15372,22.70712 -119.21124,9.28663 -6.57973,-2.20442 -16.33236,-6.2975 -21.6725,-9.09574 -5.340147,-2.79824 -9.709358,-4.63568 -9.709358,-4.0832 0,1.50148 9.274178,9.57944 15.189498,13.23032 2.85423,1.76159 8.40298,4.50896 12.33056,6.10524 l 7.14106,2.90235 -6.99619,8.87179 c -7.91972,10.04292 -8.81998,10.2888 -24.902243,6.80113 z m 20.584273,-61.18243 c 8.61993,-3.60164 9.97574,-7.91393 9.98139,-31.7469 l 0.005,-21 H 112 98.666669 V 146 150.66667 H 105.33334 112 v 14.66667 c 0,13.1804 -0.28736,14.95402 -2.83575,17.50241 -2.42058,2.42059 -3.88464,2.72751 -10,2.09635 l -7.164248,-0.73942 v 5.12588 c 0,2.85315 0.738974,5.42407 1.666666,5.7984 3.57489,1.4425 17.319722,0.78524 21.680292,-1.03672 z m 59.98638,-2.87242 c 14.86958,-7.74696 18.40232,-28.39723 7.06669,-41.30779 -5.37799,-6.12519 -14.11095,-8.56669 -30.64203,-8.56669 h -13.09133 v 26.8071 26.8071 l 15.66667,-0.48055 c 12.64284,-0.3878 16.69605,-1.01685 21,-3.25917 z M 152,168 v -16 h 5.80283 c 11.8518,0 19.00236,9.3075 16.099,20.95516 C 172.26714,179.51315 165.72708,184 157.80283,184 H 152 Z M 210.50914,189.33334 212.10704,184 H 222 h 9.89296 l 1.59791,5.33334 1.59791,5.33333 h 7.0647 7.06471 l -4.74712,-13 c -2.61091,-7.15 -6.935,-19.14875 -9.60908,-26.66387 L 230,141.33892 h -8 -8 l -4.86198,13.66388 c -2.67408,7.51512 -6.99818,19.51387 -9.60908,26.66387 l -4.74712,13 h 7.0647 7.06471 z m 6.26276,-17.66667 c 0.52337,-1.65 1.9378,-5.90213 3.14316,-9.4492 l 2.19157,-6.44919 2.45155,7.78252 c 1.34834,4.2804 2.73854,8.53254 3.08933,9.4492 0.45408,1.1866 -1.15743,1.66667 -5.59471,1.66667 -5.8564,0 -6.17508,-0.18104 -5.2809,-3 z"
     id="path3741"
     inkscape:connector-curvature="0" />
</svg>
